<svg xmlns="http://www.w3.org/2000/svg" xmlns:xlink="http://www.w3.org/1999/xlink" zoomAndPan="magnify" preserveAspectRatio="xMidYMid meet" version="1.0" viewBox="63.25 313.74 723.88 182.25"><defs><g/><clipPath id="a52291ee94"><path d="M 604.878906 387 L 714 387 L 714 495.992188 L 604.878906 495.992188 Z M 604.878906 387 " clip-rule="nonzero"/></clipPath><clipPath id="54291421a9"><path d="M 700 313.742188 L 787.128906 313.742188 L 787.128906 401 L 700 401 Z M 700 313.742188 " clip-rule="nonzero"/></clipPath><clipPath id="4f40d10d87"><path d="M 743 335 L 787.128906 335 L 787.128906 401 L 743 401 Z M 743 335 " clip-rule="nonzero"/></clipPath></defs><path fill="#8ab7f5" d="M 617.332031 412.648438 L 607.980469 407.492188 L 613.988281 396.605469 C 618.789062 387.898438 627.503906 381.695312 637.304688 380.007812 C 643.589844 378.929688 649.132812 375.195312 652.503906 369.769531 L 661.195312 355.789062 L 670.261719 361.425781 L 661.574219 375.40625 C 656.589844 383.421875 648.40625 388.933594 639.113281 390.53125 C 632.484375 391.671875 626.585938 395.871094 623.335938 401.761719 Z M 617.332031 412.648438 " fill-opacity="1" fill-rule="nonzero"/><path fill="#8ab7f5" d="M 610.707031 453.765625 L 606.894531 443.792969 L 620.085938 438.746094 C 627.046875 436.085938 631.992188 429.503906 632.394531 422.367188 C 632.789062 415.355469 635.863281 408.640625 641.050781 403.453125 C 646.234375 398.265625 652.953125 395.191406 659.96875 394.796875 C 667.453125 394.375 674.613281 389.5625 678.207031 382.539062 L 683.710938 371.777344 L 693.21875 376.640625 L 687.714844 387.402344 C 682.425781 397.742188 671.769531 404.828125 660.566406 405.460938 C 651.425781 405.972656 643.570312 413.828125 643.054688 422.96875 C 642.421875 434.234375 634.722656 444.582031 623.898438 448.722656 Z M 610.707031 453.765625 " fill-opacity="1" fill-rule="nonzero"/><path fill="#8ab7f5" d="M 657.085938 493.980469 L 647.113281 490.164062 L 652.15625 476.972656 C 656.296875 466.152344 666.644531 458.453125 677.910156 457.820312 C 687.050781 457.304688 694.910156 449.449219 695.421875 440.3125 C 696.050781 429.109375 703.140625 418.453125 713.484375 413.164062 L 724.242188 407.664062 L 729.105469 417.171875 L 718.34375 422.671875 C 711.316406 426.265625 706.503906 433.425781 706.085938 440.910156 C 705.691406 447.921875 702.617188 454.640625 697.429688 459.828125 C 692.242188 465.015625 685.523438 468.085938 678.511719 468.480469 C 671.375 468.882812 664.792969 473.828125 662.128906 480.789062 Z M 657.085938 493.980469 " fill-opacity="1" fill-rule="nonzero"/><g clip-path="url(#a52291ee94)"><path fill="#8ab7f5" d="M 612.417969 495.992188 L 604.878906 488.429688 L 612.007812 481.328125 C 618.132812 475.226562 625.417969 470.242188 633.074219 466.917969 C 642.328125 462.902344 649.546875 453.613281 650.625 444.332031 C 652.148438 431.226562 661.773438 418.699219 674.574219 413.160156 C 681.007812 410.375 687.144531 406.167969 692.320312 400.996094 L 706.089844 387.226562 L 713.640625 394.777344 L 699.871094 408.546875 C 693.753906 414.664062 686.472656 419.648438 678.816406 422.960938 C 669.542969 426.972656 662.3125 436.269531 661.230469 445.5625 C 659.710938 458.648438 650.105469 471.167969 637.328125 476.714844 C 630.882812 479.511719 624.734375 483.726562 619.542969 488.894531 Z M 612.417969 495.992188 " fill-opacity="1" fill-rule="nonzero"/></g><path fill="#8ab7f5" d="M 693.390625 492.890625 L 688.234375 483.539062 L 699.121094 477.535156 C 705.011719 474.289062 709.210938 468.390625 710.351562 461.761719 C 711.949219 452.472656 717.460938 444.285156 725.480469 439.304688 L 739.460938 430.613281 L 745.097656 439.683594 L 731.117188 448.375 C 725.6875 451.746094 721.957031 457.285156 720.875 463.570312 C 719.191406 473.367188 712.984375 482.085938 704.277344 486.886719 Z M 693.390625 492.890625 " fill-opacity="1" fill-rule="nonzero"/><g clip-path="url(#54291421a9)"><path fill="#8ab7f5" d="M 785.773438 400.367188 L 785.769531 400.367188 C 785.875 399.824219 764.667969 378.617188 743.382812 357.492188 C 721.984375 336.253906 700.507812 315.101562 700.507812 315.105469 L 700.507812 315.101562 C 723.429688 310.617188 748.105469 317.25 765.863281 335.007812 C 783.625 352.769531 790.257812 377.441406 785.773438 400.367188 Z M 785.773438 400.367188 " fill-opacity="1" fill-rule="nonzero"/></g><g clip-path="url(#4f40d10d87)"><path fill="#1374e9" d="M 785.773438 400.367188 L 785.769531 400.367188 C 785.875 399.824219 764.667969 378.617188 743.382812 357.492188 L 765.863281 335.007812 C 783.625 352.769531 790.257812 377.441406 785.773438 400.367188 Z M 785.773438 400.367188 " fill-opacity="1" fill-rule="nonzero"/></g><path fill="#1374e9" d="M 785.769531 400.367188 L 785.773438 400.367188 C 783.09375 414.042969 776.457031 427.097656 765.863281 437.695312 C 737.507812 466.050781 734.320312 423.265625 705.964844 394.910156 C 677.609375 366.554688 634.824219 363.363281 663.179688 335.007812 C 673.773438 324.414062 686.832031 317.78125 700.507812 315.101562 L 700.507812 315.105469 C 709.738281 313.285156 718.621094 319.527344 720.035156 328.828125 L 720.039062 328.828125 C 721.265625 336.902344 728.207031 342.867188 736.375 342.867188 C 742.347656 342.867188 747.753906 345.289062 751.667969 349.203125 C 755.585938 353.121094 758.003906 358.527344 758.003906 364.5 C 758.019531 372.824219 764.234375 379.648438 772.042969 380.835938 C 780.257812 382.085938 786.085938 389.15625 786.085938 397.152344 C 786.085938 398.210938 785.984375 399.285156 785.769531 400.367188 Z M 785.769531 400.367188 " fill-opacity="1" fill-rule="nonzero"/><path fill="#0b57b3" d="M 785.769531 400.367188 L 785.773438 400.367188 C 783.09375 414.042969 776.457031 427.097656 765.863281 437.695312 C 737.507812 466.050781 734.320312 423.265625 705.964844 394.910156 L 751.667969 349.203125 C 755.585938 353.121094 758.003906 358.527344 758.003906 364.5 C 758.019531 372.824219 764.234375 379.648438 772.042969 380.835938 C 780.257812 382.085938 786.085938 389.15625 786.085938 397.152344 C 786.085938 398.210938 785.984375 399.285156 785.769531 400.367188 Z M 785.769531 400.367188 " fill-opacity="1" fill-rule="nonzero"/><path fill="#fcfcfc" d="M 740.167969 368.257812 L 732.613281 375.808594 L 728.839844 372.035156 L 725.066406 368.257812 L 732.613281 360.707031 L 736.390625 364.480469 Z M 740.167969 368.257812 " fill-opacity="1" fill-rule="nonzero"/><path fill="#1374e9" d="M 740.167969 368.257812 L 732.613281 375.808594 L 728.839844 372.035156 L 736.390625 364.480469 Z M 740.167969 368.257812 " fill-opacity="1" fill-rule="nonzero"/><path fill="#fcfcfc" d="M 702.300781 360.679688 L 709.851562 353.128906 L 717.402344 360.679688 L 709.851562 368.230469 Z M 702.300781 360.679688 " fill-opacity="1" fill-rule="nonzero"/><path fill="#1374e9" d="M 732.625 391.015625 L 740.175781 383.464844 L 747.726562 391.015625 L 740.175781 398.566406 Z M 732.625 391.015625 " fill-opacity="1" fill-rule="nonzero"/><g fill="#403f3f" fill-opacity="1"><g transform="translate(60.784476, 450.749997)"><g><path d="M 21.296875 0 L 2.46875 -69.140625 L 21.875 -69.140625 L 32.59375 -22.6875 L 33.21875 -22.6875 L 44.390625 -69.140625 L 63.421875 -69.140625 L 74.765625 -22.953125 L 75.359375 -22.953125 L 85.890625 -69.140625 L 105.25 -69.140625 L 86.46875 0 L 66.171875 0 L 54.296875 -43.484375 L 53.4375 -43.484375 L 41.546875 0 Z M 21.296875 0 "/></g></g></g><g fill="#403f3f" fill-opacity="1"><g transform="translate(168.549901, 450.749997)"><g><path d="M 7.65625 0 L 7.65625 -69.140625 L 26.828125 -69.140625 L 26.828125 0 Z M 17.28125 -78.0625 C 14.457031 -78.0625 12.023438 -79.015625 9.984375 -80.921875 C 7.953125 -82.828125 6.9375 -85.113281 6.9375 -87.78125 C 6.9375 -90.445312 7.953125 -92.722656 9.984375 -94.609375 C 12.023438 -96.503906 14.457031 -97.453125 17.28125 -97.453125 C 20.132812 -97.453125 22.582031 -96.503906 24.625 -94.609375 C 26.664062 -92.722656 27.6875 -90.445312 27.6875 -87.78125 C 27.6875 -85.113281 26.664062 -82.828125 24.625 -80.921875 C 22.582031 -79.015625 20.132812 -78.0625 17.28125 -78.0625 Z M 17.28125 -78.0625 "/></g></g></g><g fill="#403f3f" fill-opacity="1"><g transform="translate(203.031234, 450.749997)"><g><path d="M 26.828125 -92.1875 L 26.828125 0 L 7.65625 0 L 7.65625 -92.1875 Z M 26.828125 -92.1875 "/></g></g></g><g fill="#403f3f" fill-opacity="1"><g transform="translate(237.512567, 450.749997)"><g><path d="M 33.125 1.125 C 27.875 1.125 23.132812 -0.226562 18.90625 -2.9375 C 14.675781 -5.65625 11.316406 -9.660156 8.828125 -14.953125 C 6.335938 -20.253906 5.09375 -26.765625 5.09375 -34.484375 C 5.09375 -42.398438 6.375 -48.992188 8.9375 -54.265625 C 11.5 -59.535156 14.90625 -63.484375 19.15625 -66.109375 C 23.40625 -68.734375 28.050781 -70.046875 33.09375 -70.046875 C 36.957031 -70.046875 40.1875 -69.390625 42.78125 -68.078125 C 45.382812 -66.773438 47.488281 -65.160156 49.09375 -63.234375 C 50.695312 -61.316406 51.921875 -59.414062 52.765625 -57.53125 L 53.34375 -57.53125 L 53.34375 -92.1875 L 72.46875 -92.1875 L 72.46875 0 L 53.5625 0 L 53.5625 -11.078125 L 52.765625 -11.078125 C 51.890625 -9.148438 50.625 -7.25 48.96875 -5.375 C 47.320312 -3.5 45.203125 -1.945312 42.609375 -0.71875 C 40.015625 0.507812 36.851562 1.125 33.125 1.125 Z M 39.203125 -14.140625 C 43.828125 -14.140625 47.40625 -16.003906 49.9375 -19.734375 C 52.476562 -23.472656 53.75 -28.421875 53.75 -34.578125 C 53.75 -40.753906 52.488281 -45.664062 49.96875 -49.3125 C 47.445312 -52.957031 43.859375 -54.78125 39.203125 -54.78125 C 34.460938 -54.78125 30.851562 -52.910156 28.375 -49.171875 C 25.90625 -45.441406 24.671875 -40.578125 24.671875 -34.578125 C 24.671875 -28.546875 25.914062 -23.628906 28.40625 -19.828125 C 30.894531 -16.035156 34.492188 -14.140625 39.203125 -14.140625 Z M 39.203125 -14.140625 "/></g></g></g><g fill="#0e65cf" fill-opacity="1"><g transform="translate(318.046185, 450.749997)"><g><path d="M 45.46875 -69.140625 L 45.46875 -54.734375 L 31.734375 -54.734375 L 31.734375 0 L 12.5625 0 L 12.5625 -54.734375 L 2.796875 -54.734375 L 2.796875 -69.140625 L 12.5625 -69.140625 L 12.5625 -74.140625 C 12.5625 -81.671875 14.710938 -87.28125 19.015625 -90.96875 C 23.328125 -94.664062 28.738281 -96.515625 35.25 -96.515625 C 38.1875 -96.515625 40.878906 -96.289062 43.328125 -95.84375 C 45.773438 -95.394531 47.597656 -94.988281 48.796875 -94.625 L 45.421875 -80.21875 C 44.671875 -80.457031 43.738281 -80.679688 42.625 -80.890625 C 41.519531 -81.097656 40.394531 -81.203125 39.25 -81.203125 C 36.425781 -81.203125 34.46875 -80.550781 33.375 -79.25 C 32.28125 -77.945312 31.734375 -76.125 31.734375 -73.78125 L 31.734375 -69.140625 Z M 45.46875 -69.140625 "/></g></g></g><g fill="#0e65cf" fill-opacity="1"><g transform="translate(367.562456, 450.749997)"><g><path d="M 26.828125 -92.1875 L 26.828125 0 L 7.65625 0 L 7.65625 -92.1875 Z M 26.828125 -92.1875 "/></g></g></g><g fill="#0e65cf" fill-opacity="1"><g transform="translate(402.043789, 450.749997)"><g><path d="M 38.890625 1.34375 C 31.898438 1.34375 25.859375 -0.144531 20.765625 -3.125 C 15.679688 -6.113281 11.757812 -10.285156 9 -15.640625 C 6.238281 -20.992188 4.859375 -27.210938 4.859375 -34.296875 C 4.859375 -41.441406 6.238281 -47.691406 9 -53.046875 C 11.757812 -58.410156 15.679688 -62.582031 20.765625 -65.5625 C 25.859375 -68.550781 31.898438 -70.046875 38.890625 -70.046875 C 45.890625 -70.046875 51.929688 -68.550781 57.015625 -65.5625 C 62.097656 -62.582031 66.019531 -58.410156 68.78125 -53.046875 C 71.539062 -47.691406 72.921875 -41.441406 72.921875 -34.296875 C 72.921875 -27.210938 71.539062 -20.992188 68.78125 -15.640625 C 66.019531 -10.285156 62.097656 -6.113281 57.015625 -3.125 C 51.929688 -0.144531 45.890625 1.34375 38.890625 1.34375 Z M 38.984375 -13.5 C 43.722656 -13.5 47.316406 -15.476562 49.765625 -19.4375 C 52.210938 -23.40625 53.4375 -28.40625 53.4375 -34.4375 C 53.4375 -40.46875 52.210938 -45.472656 49.765625 -49.453125 C 47.316406 -53.429688 43.722656 -55.421875 38.984375 -55.421875 C 34.148438 -55.421875 30.503906 -53.429688 28.046875 -49.453125 C 25.585938 -45.472656 24.359375 -40.46875 24.359375 -34.4375 C 24.359375 -28.40625 25.585938 -23.40625 28.046875 -19.4375 C 30.503906 -15.476562 34.148438 -13.5 38.984375 -13.5 Z M 38.984375 -13.5 "/></g></g></g><g fill="#0e65cf" fill-opacity="1"><g transform="translate(479.829357, 450.749997)"><g><path d="M 21.296875 0 L 2.46875 -69.140625 L 21.875 -69.140625 L 32.59375 -22.6875 L 33.21875 -22.6875 L 44.390625 -69.140625 L 63.421875 -69.140625 L 74.765625 -22.953125 L 75.359375 -22.953125 L 85.890625 -69.140625 L 105.25 -69.140625 L 86.46875 0 L 66.171875 0 L 54.296875 -43.484375 L 53.4375 -43.484375 L 41.546875 0 Z M 21.296875 0 "/></g></g></g></svg>